<svg width="56" height="56" viewBox="0 0 56 56" fill="none" xmlns="http://www.w3.org/2000/svg">
<g clip-path="url(#clip0_14_61)">
<path d="M40.8546 14.7747H14.8771C14.5676 14.7752 14.2682 14.8851 14.0319 15.0851C13.7957 15.285 13.6378 15.5621 13.5862 15.8674V34.7232C13.599 34.9936 13.7159 35.2485 13.9124 35.4346C14.1089 35.6207 14.3697 35.7236 14.6404 35.7218H25.4714L25.4504 36.5589C25.4396 36.8055 25.3329 37.038 25.1529 37.2069L23.8862 38.3956C23.6657 38.6026 23.3747 38.7177 23.0723 38.7177C22.696 38.7177 22.3352 38.8672 22.0692 39.1332C21.8031 39.3993 21.6536 39.7601 21.6536 40.1364V40.957H34.0781V40.1364C34.0781 39.7601 33.9286 39.3993 33.6626 39.1332C33.3965 38.8672 33.0357 38.7177 32.6594 38.7177C32.3571 38.7177 32.066 38.6025 31.8455 38.3956L30.5788 37.2069C30.3989 37.038 30.2921 36.8055 30.2814 36.5589L30.2604 35.7218H41.0914C41.362 35.7236 41.6229 35.6207 41.8194 35.4346C42.0158 35.2485 42.1327 34.9936 42.1455 34.7232V15.8674C42.094 15.5621 41.9361 15.285 41.6998 15.0851C41.4636 14.8851 41.1642 14.7752 40.8546 14.7747ZM39.8011 31.4779H15.9307V17.1245H39.8011L39.8011 31.4779Z" fill="#008970"/>
</g>
<circle cx="27.8659" cy="27.8659" r="27.8659" fill="#008970" fill-opacity="0.2"/>
<defs>
<clipPath id="clip0_14_61">
<rect width="29.7236" height="29.7236" fill="white" transform="translate(13.0041 13.0041)"/>
</clipPath>
</defs>
</svg>
