<svg width="56" height="56" viewBox="0 0 56 56" fill="none" xmlns="http://www.w3.org/2000/svg">
<g clip-path="url(#clip0_44_22)">
<path fill-rule="evenodd" clip-rule="evenodd" d="M40.05 33.4333L35.8167 32.95C34.8 32.8333 33.8 33.1833 33.0833 33.9L30.0167 36.9667C25.3 34.5667 21.4333 30.7167 19.0333 25.9833L22.1167 22.9C22.8333 22.1833 23.1833 21.1833 23.0667 20.1667L22.5833 15.9667C22.3833 14.2833 20.9667 13.0167 19.2667 13.0167H16.3833C14.5 13.0167 12.9333 14.5833 13.05 16.4667C13.9333 30.7 25.3167 42.0667 39.5333 42.95C41.4167 43.0667 42.9833 41.5 42.9833 39.6167V36.7333C43 35.05 41.7333 33.6333 40.05 33.4333Z" fill="#008970"/>
</g>
<circle cx="27.8659" cy="27.8659" r="27.8659" fill="#008970" fill-opacity="0.2"/>
<defs>
<clipPath id="clip0_44_22">
<rect width="30" height="30" fill="white" transform="translate(13 13)"/>
</clipPath>
</defs>
</svg>
